Coordinates
version=1
nRows=29
nColumns=22
inDegrees=yes

Units are S.I. units (second, meters, Newtons, ...)
If the header above contains a line with 'inDegrees', this indicates whether rotational values are in degrees (yes) or radians (no).

endheader
time	pelvis_tilt	pelvis_list	pelvis_rotation	pelvis_tx	pelvis_ty	pelvis_tz	hip_flexion_r	hip_adduction_r	hip_rotation_r	knee_angle_r	ankle_angle_r	subtalar_angle_r	hip_flexion_l	hip_adduction_l	hip_rotation_l	knee_angle_l	ankle_angle_l	subtalar_angle_l	lumbar_extension	lumbar_bending	lumbar_rotation
      2.34000000	     -6.10134337	     -4.01669303	    -20.03119576	     -0.38468674	      0.96059142	      0.15801014	      6.58536725	     15.59557553	     -1.67589192	    -17.76742951	     12.10942697	     -6.36404225	     26.20110090	     -9.09134343	     15.20975079	    -36.20759779	     11.34305097	     -2.37992833	     -0.36893515	      6.80298719	     -6.59131571
      2.35000000	     -6.18843330	     -3.77363725	    -20.95814632	     -0.37874647	      0.95996129	      0.16203307	      6.11750315	     15.52322668	     -0.76996008	    -17.77248529	     12.38547384	     -6.38107793	     26.64226576	     -8.73434050	     15.72336859	    -34.35947549	     10.81599500	     -1.98850728	     -0.29095853	      6.65349765	     -6.39468346
      2.36000000	     -6.27049988	     -3.53006683	    -21.86940321	     -0.37283361	      0.95928416	      0.16603928	      5.68617928	     15.43526526	      0.11423484	    -17.83385184	     12.67028317	     -6.37743723	     27.06486438	     -8.39091799	     16.19283726	    -32.48722606	     10.16044384	     -1.57639108	     -0.22024857	      6.50889324	     -6.21392399
      2.37000000	     -6.34780522	     -3.29373985	    -22.76374866	     -0.36693703	      0.95856741	      0.17004587	      5.27858936	     15.34200127	      0.97805225	    -17.93563888	     12.95620448	     -6.35147750	     27.46964065	     -8.07275121	     16.60051618	    -30.59862310	      9.39681456	     -1.16892334	     -0.15900818	      6.37521628	     -6.05184599
      2.38000000	     -6.41183609	     -3.08562928	    -23.63367708	     -0.36100256	      0.95783520	      0.17408942	      4.84263448	     15.26061731	      1.82291696	    -18.02247753	     13.25736595	     -6.27464597	     27.84191820	     -7.79608880	     16.93639372	    -28.70503045	      8.58756252	     -0.71896636	     -0.11773607	      6.26569833	     -5.90037502
      2.39000000	     -6.48432681	     -2.87821140	    -24.48937560	     -0.35509457	      0.95704564	      0.17814428	      4.45458351	     15.17379594	      2.63039592	    -18.16669820	     13.51846113	     -6.22232828	     28.21524071	     -7.54314358	     17.18116663	    -26.81375402	      7.74752974	     -0.37317124	     -0.07211712	      6.16290823	     -5.77973154
      2.40000000	     -6.53788868	     -2.70385161	    -25.32768366	     -0.34909889	      0.95626182	      0.18225839	      4.00501222	     15.09838353	      3.41922617	    -18.26193936	     13.79240911	     -6.13228130	     28.53897495	     -7.33115329	     17.32889270	    -24.92826398	      6.99268132	      0.00696828	     -0.05064951	      6.08651174	     -5.64484815
      2.41000000	     -6.58889071	     -2.54995709	    -26.14350100	     -0.34305908	      0.95545274	      0.18639589	      3.54819733	     15.02955589	      4.18242743	    -18.35899950	     14.03265516	     -6.03720474	     28.84139170	     -7.14384377	     17.38800136	    -23.06654210	      6.36351766	      0.38459924	     -0.03762834	      6.03340813	     -5.54751619
      2.42000000	     -6.62653302	     -2.42350279	    -26.94809643	     -0.33692169	      0.95464538	      0.19059225	      3.04082311	     14.96420931	      4.91086971	    -18.41585991	     14.27660804	     -5.90882443	     29.09031105	     -6.98396031	     17.37058155	    -21.22272690	      5.94366573	      0.83310290	     -0.04205994	      6.00259270	     -5.42473577
      2.43000000	     -6.67148926	     -2.30066570	    -27.74741594	     -0.33075533	      0.95379877	      0.19481206	      2.55762033	     14.89576531	      5.63322856	    -18.50418226	     14.47409447	     -5.80352827	     29.32553508	     -6.83480400	     17.27452269	    -19.42197381	      5.70649923	      1.26371795	     -0.04107442	      5.98525919	     -5.33536593
      2.44000000	     -6.68873756	     -2.22222220	    -28.52417650	     -0.32446576	      0.95298510	      0.19908751	      2.00088296	     14.83539060	      6.30174111	    -18.54955276	     14.68868115	     -5.61153699	     29.47502347	     -6.70703299	     17.18446752	    -17.65570389	      5.72069788	      1.93404329	     -0.07984808	      5.99873283	     -5.22938160
      2.45000000	     -6.72291040	     -2.13453894	    -29.32833285	     -0.31816799	      0.95211821	      0.20343662	      1.48932623	     14.76595503	      6.97486855	    -18.64529986	     14.87027751	     -5.46476573	     29.61197566	     -6.59614195	     17.05760451	    -15.95904868	      5.87719907	      2.52925817	     -0.09997955	      6.01393262	     -5.09468179
      2.46000000	     -6.75387657	     -2.06533772	    -30.14212310	     -0.31183180	      0.95124108	      0.20786649	      0.97596767	     14.70185748	      7.64112139	    -18.76550974	     15.03847158	     -5.30619088	     29.70535130	     -6.50931497	     16.96646459	    -14.35492505	      6.13578200	      3.15438884	     -0.13194129	      6.04527169	     -4.94139808
      2.47000000	     -6.79929574	     -2.00665560	    -30.99150128	     -0.30550680	      0.95033462	      0.21241821	      0.48857940	     14.65089411	      8.33975415	    -18.92778187	     15.15893432	     -5.17169853	     29.78955527	     -6.46092253	     16.90771487	    -12.90029619	      6.42382484	      3.64856892	     -0.15922678	      6.09092937	     -4.75392535
      2.48000000	     -6.82943419	     -1.99015211	    -31.82294855	     -0.29910808	      0.94945908	      0.21705864	     -0.03122289	     14.61626496	      8.98595215	    -19.09813291	     15.30984084	     -4.95074053	     29.82470654	     -6.43842423	     16.97341026	    -11.61897888	      6.70228617	      4.27858712	     -0.21798948	      6.16392793	     -4.56037284
      2.49000000	     -6.89630663	     -1.98601416	    -32.68128954	     -0.29274400	      0.94853822	      0.22182704	     -0.49353837	     14.61598832	      9.68278189	    -19.33284428	     15.37991967	     -4.76643154	     29.90894608	     -6.45463915	     17.11116376	    -10.61085429	      6.93026643	      4.65018575	     -0.25138439	      6.26319957	     -4.35502596
      2.50000000	     -6.94144159	     -2.01338181	    -33.54064917	     -0.28635057	      0.94765531	      0.22671001	     -0.97060875	     14.62708702	     10.36448310	    -19.61789762	     15.46907417	     -4.50855325	     29.98121007	     -6.47851387	     17.33282762	     -9.90519323	      7.11132377	      4.97582699	     -0.32590146	      6.37093398	     -4.15031425
      2.51000000	     -7.01063132	     -2.05420797	    -34.41611207	     -0.27989483	      0.94676822	      0.23175133	     -1.42350077	     14.65874641	     11.05623675	    -19.93810902	     15.50373628	     -4.24994312	     30.09255959	     -6.51748984	     17.57986382	     -9.53208267	      7.27349928	      5.14110528	     -0.37553121	      6.49952819	     -3.94037206
      2.52000000	     -7.09230737	     -2.11352966	    -35.30643716	     -0.27340195	      0.94589733	      0.23692490	     -1.85969087	     14.71202162	     11.76403833	    -20.30362329	     15.49683941	     -4.02717280	     30.23886735	     -6.55685911	     17.86919903	     -9.52052003	      7.37854535	      5.22246876	     -0.42346120	      6.64772915	     -3.71330592
      2.53000000	     -7.11516144	     -2.17055824	    -36.21602892	     -0.26675731	      0.94511950	      0.24228647	     -2.33579428	     14.71231013	     12.46681433	    -20.71830453	     15.51645761	     -3.53015232	     30.31526264	     -6.54799841	     18.16284009	     -9.80106212	      7.51220496	      5.36320376	     -0.50859713	      6.74694217	     -3.47667553
      2.54000000	     -7.18710353	     -2.22825276	    -37.13528988	     -0.26002811	      0.94431285	      0.24779158	     -2.75913180	     14.73947856	     13.17340606	    -21.16616117	     15.41935105	     -3.24304719	     30.43345462	     -6.53567613	     18.51929334	    -10.37570033	      7.59060219	      5.44743065	     -0.53813079	      6.87466258	     -3.23124634
      2.55000000	     -7.21044284	     -2.27489631	    -38.07213558	     -0.25314840	      0.94358705	      0.25346954	     -3.19231440	     14.71261933	     13.87036241	    -21.68505077	     15.38653216	     -2.66105535	     30.43082761	     -6.47654337	     18.94988365	    -11.09384352	      7.64100692	      5.66043579	     -0.58951820	      6.95493693	     -2.99936537
      2.56000000	     -7.24731328	     -2.30007036	    -39.01603395	     -0.24612257	      0.94287176	      0.25930523	     -3.58871065	     14.66398560	     14.54660807	    -22.23783187	     15.26839893	     -2.15965260	     30.37696688	     -6.38673065	     19.48661072	    -11.93325235	      7.62059203	      5.83559173	     -0.59601403	      7.02352344	     -2.75698918
      2.57000000	     -7.28590033	     -2.29371995	    -39.96884070	     -0.23898014	      0.94218755	      0.26533678	     -3.94592677	     14.58682012	     15.21950301	    -22.83142634	     15.06439942	     -1.76292974	     30.23983043	     -6.26444650	     20.13148561	    -12.80731060	      7.50403629	      5.94926444	     -0.55841042	      7.05642045	     -2.54228970
      2.58000000	     -7.28339591	     -2.25226253	    -40.91340913	     -0.23171662	      0.94158100	      0.27147032	     -4.24528591	     14.43932006	     15.80267017	    -23.53672222	     14.91745288	     -0.95747866	     29.95805242	     -6.08227821	     20.93518012	    -13.60942009	      7.23710891	      6.07788757	     -0.51786590	      7.02890132	     -2.34578163
      2.59000000	     -7.29105150	     -2.15503045	    -41.84273749	     -0.22435963	      0.94100694	      0.27774612	     -4.46662454	     14.25473295	     16.35653129	    -24.28265905	     14.66539198	     -0.26651947	     29.63745479	     -5.85305654	     21.84553064	    -14.37179919	      6.79364139	      6.04417687	     -0.40525566	      6.95564381	     -2.18706428
      2.60000000	     -7.27479604	     -1.99243918	    -42.72608581	     -0.21689389	      0.94050379	      0.28411579	     -4.60421189	     14.00197113	     16.81991808	    -25.09460263	     14.37407458	      0.52016145	     29.28019479	     -5.54398836	     22.84855960	    -15.07736188	      6.14762653	      5.87222785	     -0.23888001	      6.80359092	     -2.10731712
      2.61000000	     -7.25400756	     -1.81802202	    -43.58150627	     -0.20940721	      0.94009436	      0.29058102	     -4.63916603	     13.74763712	     17.17676833	    -26.03609864	     13.98569609	      1.40878339	     28.91431746	     -5.22625558	     23.85439902	    -15.76173386	      5.41072597	      5.57260077	     -0.05335272	      6.63400226	     -2.07427094
      2.62000000	     -7.21808432	     -1.61003425	    -44.38594116	     -0.20183998	      0.93980811	      0.29716302	     -4.60899769	     13.46863516	     17.48299180	    -27.02782218	     13.49490182	      2.40711219	     28.60141204	     -4.86786406	     24.75236393	    -16.49851602	      4.59892392	      5.20755058	      0.17386352	      6.41913576	     -2.11757334
